<?xml version="1.0" encoding="utf-8"?>
<!-- Generator: Adobe Illustrator 25.1.0, SVG Export Plug-In . SVG Version: 6.00 Build 0)  -->
<svg version="1.1" id="Слой_1" xmlns="http://www.w3.org/2000/svg" xmlns:xlink="http://www.w3.org/1999/xlink" x="0px" y="0px"
	 viewBox="0 0 443 64" style="enable-background:new 0 0 443 64;" xml:space="preserve">
<style type="text/css">
	.st0{fill:none;stroke:#000000;stroke-width:1.5;stroke-miterlimit:10;}
</style>
<path class="st0" d="M70.6,31c-2.3,2.2-5,4.5-8,6.6c-2,11.6-10.9,19.8-21.2,19.8c-4.3,0-8.4-1.4-11.9-4.1c-3.4,0.9-6.7,1.5-9.7,1.8
	c-1.2,0.1-2.5,0.2-3.5,0.2C10,55.3,6.2,53.4,5,50c-2-5.7,3.7-14,15.3-22.4C22.3,16.4,31,7.7,41.4,7.7c4.3,0,8.4,1.4,11.9,4.2
	c0.1,0,0.1-0.1,0.2-0.1c6.1-1.6,11.6-2.2,15.8-1.8c3.3,0.4,7.4,1.5,8.7,5.2C79.4,19.4,76.9,24.8,70.6,31z"/>
<path class="st0" d="M70.6,31c-2.3,2.2-5,4.5-8,6.6c-2,11.6-10.9,19.8-21.2,19.8c-4.3,0-8.4-1.4-11.9-4.1c-3.4,0.9-6.7,1.5-9.7,1.8
	c-1.2,0.1-2.5,0.2-3.5,0.2C10,55.3,6.2,53.4,5,50c-2-5.7,3.7-14,15.3-22.4C22.3,16.4,31,7.7,41.4,7.7c4.3,0,8.4,1.4,11.9,4.2
	c0.1,0,0.1-0.1,0.2-0.1c6.1-1.6,11.6-2.2,15.8-1.8c3.3,0.4,7.4,1.5,8.7,5.2C79.4,19.4,76.9,24.8,70.6,31z"/>
<path class="st0" d="M69.1,28.9c-5.8,5.6-14,11.1-23.3,15.6c-9.3,4.5-18.6,7.3-26.1,8C12.8,53.1,8.1,51.9,7.1,49
	C6,45.7,9.5,39,19.9,31.2c0,0.5,0,1,0,1.4c0,0.5,0,1.1,0.1,1.6c-4.4,3.6-9.3,8.5-7.9,12.5c0.5,1.4,1.8,2.4,3.7,2.8
	c0.1,0,0.2,0,0.2,0c0.6,0,1.1-0.5,1.2-1.1c0.1-0.7-0.3-1.4-0.9-1.6c-1.1-0.3-1.8-0.7-2-1.2c-0.2-0.7,0.2-2,1.3-3.4
	c1.1-1.4,2.7-3.1,4.7-4.9c0.2,1.6,0.7,3.1,1.2,4.6c0.1,0.1,0.1,0.2,0.2,0.3c0.3,0.9,1.2,1.3,2.6,1.3c1.2,0,2.9-0.4,5-1
	c3.9-1.1,8.8-3,13.9-5.4c5.1-2.4,9.8-5.1,13.2-7.4c3.3-2.3,4.9-4,5.3-5.4c0.1-0.4,0.1-0.7,0-1.1c-0.6-1.6-1.3-3.2-2.1-4.6
	c2.6-0.5,4.7-0.5,6.3-0.5c1.6,0.2,2.8,0.7,3,1.3c0.2,0.6-0.2,2.3-2.3,4.6c-0.5,0.5-0.5,1.4,0,2c0.2,0.3,0.6,0.4,0.8,0.4
	c0.2,0,0.6-0.1,0.8-0.4c2.6-3,3.5-5.6,2.8-7.7c-1.4-3.9-7.8-3.5-13.2-2.3c-0.6-0.8-1.2-1.4-1.9-2.1c10.6-2.5,18.6-1.7,20,2.2
	C76.7,19.1,74.2,23.8,69.1,28.9z"/>
<path class="st0" d="M54.9,33.5c-3.4,2.1-7.1,4.2-11,6c-8.6,4.1-17,6.8-23,7.4c-0.7,0.1-1.2,0.7-1.1,1.5c0.1,0.7,0.6,1.3,1.2,1.3
	h0.1c6.2-0.6,14.9-3.4,23.7-7.6c4-1.9,7.7-4,11.2-6.1c0.6-0.4,0.8-1.3,0.5-1.9C56.2,33.5,55.5,33.2,54.9,33.5z"/>
<path class="st0" d="M62.4,28.1c-0.7,0.6-1.6,1.3-2.4,2c-0.6,0.5-0.7,1.3-0.3,1.9c0.2,0.5,0.6,0.6,1,0.6c0.2,0,0.4-0.1,0.7-0.3
	c0.9-0.6,1.7-1.3,2.6-2c0.6-0.5,0.7-1.3,0.2-1.9C63.7,27.8,63,27.7,62.4,28.1z"/>
<path class="st0" d="M36.3,17.4c0.1,0,0.2,0,0.4-0.1c0.7-0.4,1.6-0.5,2.4-0.7c0.7-0.1,1.1-0.8,1-1.6c-0.1-0.8-0.7-1.3-1.4-1.2
	c-0.9,0.2-1.9,0.5-2.8,0.8c-0.6,0.3-1,1.1-0.7,1.8C35.4,17.1,35.8,17.4,36.3,17.4z"/>
<path class="st0" d="M43.8,16.6c3.2,0.6,6.1,2.5,8.2,5.2c0.2,0.4,0.6,0.5,0.9,0.5c0.2,0,0.6-0.1,0.8-0.4c0.5-0.5,0.6-1.3,0.1-2
	c-2.6-3.3-5.9-5.4-9.6-6.1c-0.7-0.1-1.3,0.4-1.4,1.2C42.7,15.8,43.1,16.5,43.8,16.6z"/>
<g>
	<path d="M104.4,17.8h3.4l7.3,22.5l6.3-22.5h5.2l-8.7,28.7h-5.1l-6.5-20.1l-6.8,20.1h-5.1l-8.7-28.7h5.2l6.3,22.5L104.4,17.8z"/>
	<path d="M133.1,45.8c-1.6-0.7-2.8-1.7-3.6-3s-1.2-2.9-1.2-4.8v-3.3c0-1.9,0.4-3.4,1.2-4.8s2-2.3,3.6-3s3.4-1,5.6-1
		c2.2,0,4.1,0.3,5.6,1s2.8,1.7,3.6,3c0.8,1.3,1.2,2.9,1.2,4.8V38c0,1.9-0.4,3.5-1.2,4.8c-0.8,1.3-2,2.3-3.6,3s-3.4,1-5.6,1
		C136.5,46.8,134.6,46.5,133.1,45.8z M142.8,41.7c1-0.9,1.4-2.1,1.4-3.7v-3.4c0-1.6-0.5-2.8-1.4-3.7s-2.3-1.3-4-1.3s-3.1,0.4-4,1.3
		s-1.4,2.1-1.4,3.7V38c0,1.6,0.5,2.8,1.4,3.7s2.3,1.3,4,1.3S141.8,42.6,142.8,41.7z"/>
	<path d="M156.3,26h5v20.5h-5V26z M168.6,29.9c-0.7-0.2-1.4-0.3-2.3-0.3c-1.6,0-2.8,0.4-3.7,1.1c-0.9,0.7-1.3,1.7-1.3,2.9l-0.5-3.9
		c0.8-1.2,1.8-2.2,3-2.9c1.2-0.7,2.6-1,4.1-1c1.2,0,2.2,0.1,3.1,0.4c0.9,0.3,1.8,0.7,2.5,1.2l-3.2,3.6
		C169.8,30.5,169.2,30.1,168.6,29.9z"/>
	<path d="M177.6,17.8h5v28.7h-5V17.8z M179.8,38.8l13-12.7h5.9l-19.2,17.5L179.8,38.8z M185.7,34.7l3.2-2.7l11.1,14.5h-5.4
		L185.7,34.7z"/>
	<path d="M223.2,45.5c-1.9-0.9-3.4-2.1-4.4-3.7c-1-1.6-1.6-3.5-1.6-5.6v-8.1c0-2.1,0.5-4,1.6-5.6c1-1.6,2.5-2.8,4.4-3.7
		c1.9-0.9,4.1-1.3,6.5-1.3s4.7,0.4,6.5,1.3c1.9,0.9,3.4,2.1,4.4,3.7c1,1.6,1.6,3.5,1.6,5.6v8.1c0,2.1-0.5,4-1.6,5.6
		c-1,1.6-2.5,2.8-4.4,3.7s-4.1,1.3-6.5,1.3S225.1,46.4,223.2,45.5z M233.6,42.1c1.1-0.5,2-1.3,2.6-2.3c0.6-1,0.9-2.1,0.9-3.4V28
		c0-1.3-0.3-2.4-0.9-3.4c-0.6-1-1.5-1.7-2.6-2.3c-1.1-0.5-2.4-0.8-3.9-0.8s-2.8,0.3-3.9,0.8c-1.1,0.5-2,1.3-2.6,2.3
		c-0.6,1-0.9,2.1-0.9,3.4v8.4c0,1.3,0.3,2.4,0.9,3.4c0.6,1,1.5,1.7,2.6,2.3c1.1,0.5,2.4,0.8,3.9,0.8S232.5,42.6,233.6,42.1z"/>
	<path d="M255.2,46.4c-1.5-0.3-3-0.7-4.3-1.2c-1.3-0.5-2.6-1.2-3.7-2l3.1-3.1c1.4,0.9,2.8,1.7,4.5,2.1s3.4,0.7,5.3,0.7
		c2.6,0,4.6-0.4,6-1.2c1.4-0.8,2.1-1.9,2.1-3.3v0c0-1-0.3-1.8-1-2.4c-0.6-0.6-1.5-1-2.5-1.3c-1-0.3-2.3-0.5-3.9-0.8c0,0-0.1,0-0.2,0
		c-0.1,0-0.1,0-0.2,0L260,34c-2.4-0.3-4.3-0.7-5.8-1.1c-1.5-0.4-2.8-1.2-3.8-2.3c-1.1-1.1-1.6-2.7-1.6-4.7v0c0-1.8,0.5-3.3,1.5-4.6
		c1-1.3,2.4-2.2,4.3-2.9c1.9-0.7,4.2-1,6.8-1c1.3,0,2.5,0.1,3.8,0.3c1.2,0.2,2.4,0.6,3.6,1s2.4,1,3.5,1.7l-2.8,3.2
		c-1.4-0.8-2.7-1.4-4-1.8c-1.3-0.4-2.7-0.6-4-0.6c-2.4,0-4.3,0.4-5.7,1.2c-1.3,0.8-2,1.9-2,3.3v0c0,1,0.3,1.8,1,2.3
		c0.7,0.6,1.6,1,2.6,1.3c1,0.3,2.5,0.5,4.3,0.8c0.1,0,0.1,0,0.2,0c0.1,0,0.1,0,0.2,0c0.1,0,0.2,0,0.3,0s0.2,0,0.3,0
		c2.2,0.4,3.9,0.8,5.4,1.3c1.4,0.5,2.6,1.3,3.6,2.4c1,1.1,1.5,2.6,1.5,4.5v0c0,1.8-0.5,3.2-1.5,4.5c-1,1.2-2.5,2.2-4.5,2.8
		c-1.9,0.7-4.3,1-7,1C258.3,46.8,256.7,46.7,255.2,46.4z"/>
	<path d="M319.1,17.8h4.7v28.7h-4.9V25l0.2,1.3l-8.7,16.2H307l-8.7-15.9l0.2-1.7v21.5h-4.9V17.8h4.7l10.4,19L319.1,17.8z"/>
	<path d="M336.2,45.8c-1.6-0.7-2.8-1.7-3.6-3c-0.8-1.3-1.2-2.9-1.2-4.8v-3.3c0-1.9,0.4-3.4,1.2-4.8c0.8-1.3,2-2.3,3.6-3
		c1.6-0.7,3.4-1,5.6-1s4.1,0.3,5.6,1s2.8,1.7,3.6,3c0.8,1.3,1.2,2.9,1.2,4.8V38c0,1.9-0.4,3.5-1.2,4.8c-0.8,1.3-2,2.3-3.6,3
		s-3.4,1-5.6,1S337.7,46.5,336.2,45.8z M345.9,41.7c1-0.9,1.4-2.1,1.4-3.7v-3.4c0-1.6-0.5-2.8-1.4-3.7s-2.3-1.3-4-1.3
		c-1.7,0-3.1,0.4-4,1.3c-1,0.9-1.4,2.1-1.4,3.7V38c0,1.6,0.5,2.8,1.4,3.7c1,0.9,2.3,1.3,4,1.3C343.6,43,344.9,42.6,345.9,41.7z"/>
	<path d="M359.4,17.8h5v28.7h-5V17.8z M366.6,45.9c-1.2-0.6-2-1.5-2.6-2.6l0.3-4.3c0,0.9,0.2,1.6,0.6,2.3c0.4,0.6,1,1.1,1.7,1.4
		s1.6,0.5,2.7,0.5c1.6,0,2.9-0.4,3.8-1.2s1.4-2,1.4-3.4v-4.4c0-1.5-0.5-2.7-1.4-3.5c-0.9-0.8-2.2-1.2-3.8-1.2c-1.1,0-2,0.2-2.7,0.5
		s-1.3,0.8-1.7,1.4c-0.4,0.6-0.6,1.3-0.6,2.2l-0.5-3.9c0.8-1.2,1.8-2.1,3-2.8c1.2-0.7,2.6-1,4.1-1c1.8,0,3.3,0.3,4.6,1
		c1.3,0.7,2.3,1.6,2.9,2.9s1,2.8,1,4.5v4.5c0,1.7-0.3,3.2-1,4.5c-0.7,1.2-1.7,2.2-3,2.8c-1.3,0.7-2.9,1-4.7,1
		C369.2,46.8,367.8,46.5,366.6,45.9z"/>
	<path d="M386.6,17.8h5v4h-5V17.8z M386.6,26h5v20.5h-5V26z"/>
	<path d="M404.1,41.2c0,0.5,0.1,0.9,0.4,1.2s0.6,0.4,1.1,0.4h2.3v3.8h-2.9c-1.9,0-3.4-0.5-4.4-1.4c-1-0.9-1.6-2.3-1.6-4V17.8h5V41.2
		z"/>
	<path d="M418,45.8c-1.7-0.7-2.9-1.8-3.8-3.1c-0.9-1.4-1.3-3-1.3-5v-2.3c0-2,0.4-3.8,1.3-5.2c0.8-1.4,2.1-2.5,3.7-3.3
		c1.6-0.8,3.5-1.1,5.8-1.1c2.1,0,3.9,0.4,5.4,1.3c1.5,0.9,2.6,2.1,3.4,3.7c0.8,1.6,1.2,3.6,1.2,5.8v1.3h-17.1v-3.2h12.4
		c-0.1-1.7-0.7-3-1.6-3.9c-0.9-0.9-2.2-1.4-3.7-1.4c-1.9,0-3.4,0.5-4.4,1.5c-1,1-1.6,2.4-1.6,4.2v2.6c0,1.7,0.6,3,1.7,3.9
		c1.1,0.9,2.7,1.4,4.7,1.4c1,0,2-0.2,3-0.5c1-0.3,1.9-0.8,2.7-1.4l3.3,2.6c-1.3,1-2.7,1.7-4.2,2.3c-1.6,0.5-3.1,0.8-4.7,0.8
		C421.7,46.8,419.7,46.5,418,45.8z"/>
</g>
</svg>
