<?xml version="1.0" encoding="utf-8"?>
<!-- Generator: Adobe Illustrator 25.1.0, SVG Export Plug-In . SVG Version: 6.00 Build 0)  -->
<svg version="1.1" id="Слой_1" xmlns="http://www.w3.org/2000/svg" xmlns:xlink="http://www.w3.org/1999/xlink" x="0px" y="0px"
	 viewBox="0 0 100 100" style="enable-background:new 0 0 100 100;" xml:space="preserve">
<style type="text/css">
	.st0{display:none;}
	.st1{fill:#009900;}
	.st2{display:inline;fill:#009900;}
	.st3{fill:url(#SVGID_1_);stroke:#FFFFFF;stroke-width:2;stroke-miterlimit:10;}
	.st4{fill:none;stroke:#FFFFFF;stroke-width:2;stroke-miterlimit:10;}
	.st5{fill:url(#SVGID_2_);stroke:#FFFFFF;stroke-width:2;stroke-miterlimit:10;}
</style>
<g transform="translate(100,100) rotate(180) translate(0, 6.698729810778069)" class="st0">
	<polygon class="st1" points="29.7,17.5 25.9,27.8 15,26 0,0 65,0 58,8.5 65,17 29.8,17 	"/>
	<g transform="translate(100,0) rotate(120) ">
		<polygon class="st2" points="29.7,17.5 25.9,27.8 15,26 0,0 65,0 58,8.5 65,17 29.8,17 		"/>
	</g>
	<g transform="translate(50,86.60254037844386) rotate(240) ">
		<polygon class="st2" points="29.7,17.5 25.9,27.8 15,26 0,0 65,0 58,8.5 65,17 29.8,17 		"/>
	</g>
</g>
<g>
	
		<linearGradient id="SVGID_1_" gradientUnits="userSpaceOnUse" x1="30.6214" y1="20.2109" x2="60.3795" y2="64.8482" gradientTransform="matrix(1 0 0 1 0 2.1104)">
		<stop  offset="0" style="stop-color:#FF00FF"/>
		<stop  offset="0.2176" style="stop-color:#D522F9"/>
		<stop  offset="0.7046" style="stop-color:#6C76EB"/>
		<stop  offset="1" style="stop-color:#29ABE2"/>
	</linearGradient>
	<path class="st3" d="M88.2,49.4c-3,2.9-6.6,5.8-10.5,8.5c-2.7,15-14.3,25.7-27.8,25.7c-5.6,0-11-1.9-15.6-5.3
		c-4.5,1.1-8.8,2-12.7,2.3c-1.6,0.1-3.2,0.2-4.6,0.2c-8.2,0-13.3-2.5-14.9-7c-2.7-7.4,4.8-18.2,20.1-29c2.6-14.5,14-25.7,27.7-25.7
		c5.6,0,11,1.9,15.6,5.4c0.1,0,0.1-0.1,0.2-0.1c8.1-2.1,15.2-2.9,20.7-2.3c4.3,0.5,9.7,2,11.4,6.8C99.9,34.3,96.5,41.3,88.2,49.4z"
		/>
	<path class="st4" d="M88.2,49.4c-3,2.9-6.6,5.8-10.5,8.5c-2.7,15-14.3,25.7-27.8,25.7c-5.6,0-11-1.9-15.6-5.3
		c-4.5,1.1-8.8,2-12.7,2.3c-1.6,0.1-3.2,0.2-4.6,0.2c-8.2,0-13.3-2.5-14.9-7c-2.7-7.4,4.8-18.2,20.1-29c2.6-14.5,14-25.7,27.7-25.7
		c5.6,0,11,1.9,15.6,5.4c0.1,0,0.1-0.1,0.2-0.1c8.1-2.1,15.2-2.9,20.7-2.3c4.3,0.5,9.7,2,11.4,6.8C99.9,34.3,96.5,41.3,88.2,49.4z"
		/>
	
		<linearGradient id="SVGID_2_" gradientUnits="userSpaceOnUse" x1="5.8348" y1="76.1615" x2="96.0342" y2="22.1822" gradientTransform="matrix(1 0 0 1 0 2.1104)">
		<stop  offset="0" style="stop-color:#2E3192"/>
		<stop  offset="0.2245" style="stop-color:#3B3092"/>
		<stop  offset="1" style="stop-color:#662D91"/>
	</linearGradient>
	<path class="st5" d="M86.3,46.6C78.7,53.9,67.9,61,55.7,66.8c-12.3,5.8-24.4,9.5-34.3,10.4C12.5,77.9,6.3,76.4,5,72.6
		c-1.5-4.3,3.1-12.9,16.7-23.1c0,0.6,0,1.3,0,1.9c0,0.7,0,1.4,0.1,2.1C16,58.1,9.7,64.6,11.5,69.6c0.6,1.9,2.4,3.1,4.8,3.7
		c0.1,0,0.2,0,0.3,0c0.8,0,1.4-0.6,1.5-1.4c0.1-0.9-0.4-1.9-1.2-2.1c-1.4-0.4-2.4-0.9-2.6-1.5c-0.3-0.9,0.3-2.5,1.7-4.4
		c1.4-1.9,3.6-4,6.2-6.3c0.3,2.1,0.9,4,1.5,6c0.1,0.1,0.1,0.2,0.2,0.4c0.4,1.1,1.6,1.7,3.4,1.7c1.6,0,3.8-0.5,6.6-1.3
		c5.1-1.4,11.5-3.9,18.2-7s12.8-6.6,17.3-9.6c4.3-3,6.5-5.2,6.9-7c0.1-0.5,0.1-0.9,0-1.4c-0.8-2.1-1.7-4.2-2.8-6
		c3.4-0.6,6.2-0.7,8.3-0.6c2.2,0.2,3.7,0.9,4,1.7c0.3,0.8-0.3,3-3,6c-0.6,0.7-0.6,1.9,0,2.5c0.3,0.4,0.8,0.5,1.1,0.5
		c0.3,0,0.8-0.1,1.1-0.5c3.4-3.9,4.6-7.3,3.7-9.9c-1.8-5.1-10.2-4.5-17.3-3c-0.8-1-1.6-1.9-2.5-2.8c13.9-3.2,24.4-2.2,26.2,2.9
		C96.3,34,93.1,40.1,86.3,46.6z"/>
	<path class="st4" d="M67.7,52.6c-4.4,2.8-9.3,5.4-14.4,7.8C41.9,65.8,31,69.3,23.1,70c-0.9,0.1-1.5,0.9-1.4,2
		c0.1,0.9,0.8,1.6,1.5,1.6h0.1c8.2-0.8,19.5-4.4,31.2-9.8c5.3-2.4,10.1-5.2,14.7-7.9c0.8-0.5,1.1-1.6,0.6-2.4
		C69.4,52.5,68.4,52.1,67.7,52.6z"/>
	<path class="st4" d="M77.6,45.6c-1,0.8-2,1.6-3.1,2.5c-0.8,0.6-1,1.6-0.4,2.4c0.3,0.6,0.8,0.8,1.3,0.8c0.3,0,0.5-0.1,0.9-0.4
		c1.2-0.8,2.3-1.7,3.4-2.5c0.8-0.6,0.9-1.7,0.3-2.4C79.3,45.2,78.3,45,77.6,45.6z"/>
	<path class="st4" d="M43.3,31.7c0.1,0,0.3,0,0.5-0.1c1-0.5,2-0.7,3.1-0.9c0.9-0.1,1.4-1,1.3-2.1c-0.1-1-1-1.6-1.8-1.5
		c-1.2,0.2-2.5,0.6-3.7,1c-0.8,0.4-1.3,1.4-1,2.3C42.1,31.3,42.7,31.7,43.3,31.7z"/>
	<path class="st4" d="M53.1,30.7c4.2,0.8,8,3.2,10.8,6.8c0.3,0.5,0.8,0.6,1.2,0.6c0.3,0,0.8-0.1,1.1-0.5c0.6-0.7,0.8-1.7,0.1-2.5
		c-3.4-4.3-7.8-7-12.6-8c-0.9-0.1-1.7,0.5-1.8,1.5C51.7,29.6,52.2,30.5,53.1,30.7z"/>
</g>
</svg>
