<?xml version="1.0" encoding="utf-8"?>
<!-- Generator: Adobe Illustrator 25.1.0, SVG Export Plug-In . SVG Version: 6.00 Build 0)  -->
<svg version="1.1"
	 id="svg4576" xmlns:cc="http://creativecommons.org/ns#" xmlns:dc="http://purl.org/dc/elements/1.1/" xmlns:inkscape="http://www.inkscape.org/namespaces/inkscape" xmlns:rdf="http://www.w3.org/1999/02/22-rdf-syntax-ns#" xmlns:sodipodi="http://sodipodi.sourceforge.net/DTD/sodipodi-0.dtd" xmlns:svg="http://www.w3.org/2000/svg"
	 xmlns="http://www.w3.org/2000/svg" xmlns:xlink="http://www.w3.org/1999/xlink" x="0px" y="0px" viewBox="0 0 502 100"
	 style="enable-background:new 0 0 502 100;" xml:space="preserve">
<style type="text/css">
	.st0{fill:url(#SVGID_1_);stroke:#FFFFFF;stroke-width:2;stroke-miterlimit:10;}
	.st1{fill:none;stroke:#FFFFFF;stroke-width:2;stroke-miterlimit:10;}
	.st2{fill:url(#SVGID_2_);stroke:#FFFFFF;stroke-width:2;stroke-miterlimit:10;}
	.st3{fill:#FFFFFF;}
</style>
<sodipodi:namedview  bordercolor="#666666" borderopacity="1.0" id="namedview24" inkscape:current-layer="svg4576" inkscape:cx="243.23139" inkscape:cy="77.501105" inkscape:deskcolor="#d1d1d1" inkscape:pagecheckerboard="0" inkscape:pageopacity="0.0" inkscape:showpageshadow="2" inkscape:window-height="2124" inkscape:window-maximized="1" inkscape:window-width="2603" inkscape:window-x="0" inkscape:window-y="0" inkscape:zoom="2.7031873" pagecolor="#ffffff" showgrid="false">
	</sodipodi:namedview>
<g>
	
		<linearGradient id="SVGID_1_" gradientUnits="userSpaceOnUse" x1="34.9942" y1="16.6308" x2="66.3272" y2="63.6304" gradientTransform="matrix(1 0 0 1 0 2.1104)">
		<stop  offset="0" style="stop-color:#FF00FF"/>
		<stop  offset="0.2176" style="stop-color:#D522F9"/>
		<stop  offset="0.7046" style="stop-color:#6C76EB"/>
		<stop  offset="1" style="stop-color:#29ABE2"/>
	</linearGradient>
	<path class="st0" d="M96.7,47.3c-3.3,3-7.1,6-11.3,8.9C82.5,71.8,69.9,83,55.4,83c-6,0-11.9-1.9-16.9-5.5
		c-4.9,1.2-9.5,2.1-13.7,2.4c-1.7,0.1-3.5,0.2-5,0.2c-8.8,0-14.3-2.6-16-7.3c-2.9-7.7,5.2-19,21.7-30.3
		c2.8-15.1,15.1-26.8,29.9-26.8c6,0,11.9,1.9,16.9,5.7c0.1,0,0.1-0.1,0.2-0.1c8.7-2.1,16.4-3,22.3-2.4c4.7,0.5,10.5,2.1,12.3,7.1
		C109.2,31.5,105.6,38.8,96.7,47.3z"/>
	<path class="st1" d="M96.7,47.3c-3.3,3-7.1,6-11.3,8.9C82.5,71.8,69.9,83,55.4,83c-6,0-11.9-1.9-16.9-5.5
		c-4.9,1.2-9.5,2.1-13.7,2.4c-1.7,0.1-3.5,0.2-5,0.2c-8.8,0-14.3-2.6-16-7.3c-2.9-7.7,5.2-19,21.7-30.3
		c2.8-15.1,15.1-26.8,29.9-26.8c6,0,11.9,1.9,16.9,5.7c0.1,0,0.1-0.1,0.2-0.1c8.7-2.1,16.4-3,22.3-2.4c4.7,0.5,10.5,2.1,12.3,7.1
		C109.2,31.5,105.6,38.8,96.7,47.3z"/>
	
		<linearGradient id="SVGID_2_" gradientUnits="userSpaceOnUse" x1="8.0294" y1="75.955" x2="104.6701" y2="18.1209" gradientTransform="matrix(1 0 0 1 0 2.1104)">
		<stop  offset="0" style="stop-color:#2E3192"/>
		<stop  offset="0.2245" style="stop-color:#3B3092"/>
		<stop  offset="1" style="stop-color:#662D91"/>
	</linearGradient>
	<path class="st2" d="M94.6,44.4c-8.2,7.6-19.8,15-33,21c-13.2,6-26.4,9.9-37,10.8c-9.7,0.8-16.3-0.8-17.7-4.7
		c-1.6-4.5,3.4-13.5,18-24.1c0,0.6,0,1.3,0,1.9c0,0.7,0,1.4,0.1,2.1c-6.3,4.8-13.1,11.6-11.2,16.8c0.7,1.9,2.5,3.3,5.2,3.8
		c0.1,0,0.2,0,0.3,0c0.8,0,1.5-0.6,1.6-1.4c0.1-0.9-0.5-1.9-1.3-2.1c-1.5-0.4-2.5-0.9-2.8-1.6c-0.3-0.9,0.3-2.6,1.9-4.6
		c1.5-1.9,3.8-4.2,6.7-6.6c0.3,2.1,1,4.2,1.6,6.2c0.1,0.1,0.1,0.2,0.2,0.4c0.5,1.2,1.7,1.8,3.7,1.8c1.7,0,4.1-0.5,7.1-1.3
		c5.5-1.4,12.5-4.1,19.7-7.3s13.8-6.9,18.6-10c4.7-3.1,7-5.4,7.5-7.3c0.1-0.5,0.1-0.9,0-1.4c-0.8-2.1-1.9-4.3-3-6.2
		c3.6-0.6,6.6-0.7,9-0.6c2.3,0.2,4,0.9,4.3,1.8s-0.3,3.1-3.3,6.2c-0.7,0.7-0.7,1.9,0,2.6c0.3,0.4,0.8,0.5,1.2,0.5
		c0.3,0,0.8-0.1,1.2-0.5c3.7-4.1,5-7.6,4-10.4c-2-5.3-11-4.7-18.7-3.1c-0.8-1.1-1.7-1.9-2.7-2.9c15-3.4,26.3-2.3,28.3,3
		C105.4,31.2,101.9,37.5,94.6,44.4z"/>
	<path class="st1" d="M74.5,50.6c-4.8,2.9-10,5.7-15.6,8.2c-12.2,5.5-24.1,9.2-32.6,10c-1,0.1-1.6,0.9-1.5,2.1
		c0.1,0.9,0.8,1.7,1.6,1.7h0.1c8.8-0.8,21-4.6,33.6-10.2c5.7-2.5,11-5.4,15.8-8.3c0.8-0.5,1.2-1.7,0.7-2.5
		C76.3,50.5,75.3,50.1,74.5,50.6z"/>
	<path class="st1" d="M85.2,43.3c-1,0.8-2.2,1.7-3.4,2.6c-0.8,0.6-1,1.7-0.5,2.5c0.3,0.6,0.8,0.8,1.4,0.8c0.3,0,0.6-0.1,1-0.4
		c1.3-0.8,2.5-1.8,3.6-2.6c0.8-0.6,1-1.8,0.3-2.5C87,42.9,86,42.7,85.2,43.3z"/>
	<path class="st1" d="M48.2,28.8c0.1,0,0.3,0,0.6-0.1c1-0.5,2.2-0.7,3.4-0.9c1-0.1,1.5-1.1,1.4-2.1c-0.1-1.1-1-1.7-2-1.6
		c-1.3,0.2-2.7,0.6-4,1.1c-0.8,0.4-1.4,1.4-1,2.4C46.9,28.4,47.5,28.8,48.2,28.8z"/>
	<path class="st1" d="M58.8,27.8c4.5,0.8,8.6,3.4,11.6,7.1c0.3,0.5,0.8,0.6,1.3,0.6c0.3,0,0.8-0.1,1.2-0.5c0.7-0.7,0.8-1.8,0.1-2.6
		c-3.6-4.5-8.4-7.3-13.6-8.3c-1-0.1-1.9,0.5-2,1.6C57.3,26.6,57.8,27.5,58.8,27.8z"/>
</g>
<g>
	<path class="st3" d="M132.3,32.9h3.8l8.1,29l7-29h5.8l-9.7,37h-5.7L134.3,44l-7.6,25.8h-5.7l-9.7-37h5.8l7,29L132.3,32.9z"/>
	<path class="st3" d="M164.2,68.9c-1.7-0.9-3.1-2.2-4-3.9c-0.9-1.7-1.4-3.8-1.4-6.2v-4.3c0-2.4,0.5-4.4,1.4-6.1c0.9-1.7,2.2-3,4-3.9
		c1.7-0.9,3.8-1.3,6.3-1.3c2.4,0,4.5,0.4,6.3,1.3c1.7,0.9,3.1,2.2,4,3.9s1.4,3.7,1.4,6.1v4.4c0,2.4-0.5,4.5-1.4,6.2s-2.2,3-4,3.9
		c-1.7,0.9-3.8,1.3-6.3,1.3C168,70.2,165.9,69.8,164.2,68.9z M175,63.6c1.1-1.1,1.6-2.7,1.6-4.8v-4.4c0-2-0.5-3.6-1.6-4.8
		c-1.1-1.1-2.6-1.7-4.5-1.7s-3.4,0.6-4.5,1.7c-1.1,1.1-1.6,2.7-1.6,4.8v4.4c0,2.1,0.5,3.6,1.6,4.8s2.6,1.7,4.5,1.7
		S173.9,64.7,175,63.6z"/>
	<path class="st3" d="M190,43.5h5.5v26.4H190V43.5z M203.7,48.5c-0.7-0.3-1.6-0.4-2.6-0.4c-1.8,0-3.1,0.5-4.1,1.4
		c-1,0.9-1.5,2.2-1.5,3.8l-0.6-5.1c0.9-1.6,2-2.8,3.4-3.7s2.9-1.3,4.6-1.3c1.3,0,2.5,0.2,3.5,0.5s2,0.9,2.7,1.5l-3.6,4.6
		C205,49.2,204.4,48.8,203.7,48.5z"/>
	<path class="st3" d="M213.8,32.9h5.5v37h-5.5V32.9z M216.2,59.9l14.5-16.4h6.5L215.8,66L216.2,59.9z M222.7,54.6l3.6-3.5l12.3,18.7
		h-6L222.7,54.6z"/>
	<path class="st3" d="M264.5,68.6c-2.1-1.1-3.7-2.7-4.9-4.8s-1.7-4.4-1.7-7.2V46.2c0-2.7,0.6-5.1,1.7-7.2c1.2-2.1,2.8-3.7,4.9-4.8
		c2.1-1.1,4.5-1.7,7.3-1.7s5.2,0.6,7.3,1.7c2.1,1.1,3.7,2.7,4.9,4.8c1.2,2.1,1.7,4.4,1.7,7.2v10.5c0,2.7-0.6,5.1-1.7,7.2
		c-1.2,2.1-2.8,3.7-4.9,4.8c-2.1,1.1-4.5,1.7-7.3,1.7S266.6,69.7,264.5,68.6z M276.1,64.1c1.2-0.7,2.2-1.7,2.9-2.9s1-2.7,1-4.4V46
		c0-1.7-0.3-3.1-1-4.4c-0.7-1.3-1.6-2.2-2.9-2.9c-1.2-0.7-2.7-1-4.3-1c-1.6,0-3.1,0.3-4.3,1c-1.2,0.7-2.2,1.7-2.9,2.9
		c-0.7,1.3-1,2.7-1,4.4v10.8c0,1.7,0.3,3.1,1,4.4s1.6,2.2,2.9,2.9c1.2,0.7,2.7,1,4.3,1C273.4,65.1,274.9,64.8,276.1,64.1z"/>
	<path class="st3" d="M300.1,69.7c-1.7-0.3-3.3-0.8-4.8-1.5c-1.5-0.7-2.9-1.5-4.1-2.5l3.5-4c1.5,1.2,3.2,2.1,5,2.7
		c1.8,0.6,3.8,0.9,5.9,0.9c2.9,0,5.1-0.5,6.7-1.5c1.6-1,2.4-2.4,2.4-4.2v0c0-1.3-0.4-2.3-1.1-3.1s-1.6-1.3-2.8-1.7
		c-1.1-0.4-2.6-0.7-4.4-1c-0.1,0-0.1,0-0.2,0c-0.1,0-0.1,0-0.2,0l-0.4-0.1c-2.6-0.4-4.8-0.9-6.5-1.4c-1.7-0.5-3.1-1.5-4.3-2.9
		c-1.2-1.4-1.8-3.4-1.8-6v0c0-2.3,0.5-4.2,1.6-5.9s2.7-2.9,4.8-3.7c2.1-0.8,4.6-1.3,7.6-1.3c1.4,0,2.8,0.1,4.2,0.4
		c1.4,0.3,2.7,0.7,4.1,1.3c1.3,0.6,2.6,1.3,3.9,2.1l-3.2,4.1c-1.5-1-3-1.8-4.5-2.3c-1.5-0.5-3-0.8-4.5-0.8c-2.7,0-4.8,0.5-6.3,1.5
		c-1.5,1-2.2,2.4-2.2,4.3v0c0,1.3,0.4,2.3,1.2,3s1.7,1.3,2.9,1.6c1.2,0.3,2.8,0.7,4.8,1.1c0.1,0,0.1,0,0.2,0s0.1,0,0.2,0
		c0.1,0,0.2,0,0.3,0.1c0.1,0,0.2,0,0.3,0.1c2.4,0.5,4.4,1,6,1.6s2.9,1.6,4,3c1.1,1.4,1.6,3.3,1.6,5.7v0.1c0,2.3-0.6,4.2-1.7,5.8
		c-1.1,1.6-2.8,2.8-5,3.7c-2.2,0.8-4.8,1.3-7.8,1.3C303.6,70.2,301.8,70.1,300.1,69.7z"/>
	<path class="st3" d="M371.2,32.9h5.2v37H371V42.2l0.3,1.6l-9.7,20.9h-3.9L348,44.3l0.3-2.1v27.7h-5.4v-37h5.2l11.6,24.4L371.2,32.9
		z"/>
	<path class="st3" d="M390.2,68.9c-1.7-0.9-3.1-2.2-4-3.9c-0.9-1.7-1.4-3.8-1.4-6.2v-4.3c0-2.4,0.5-4.4,1.4-6.1s2.2-3,4-3.9
		s3.8-1.3,6.3-1.3s4.5,0.4,6.3,1.3s3.1,2.2,4,3.9s1.4,3.7,1.4,6.1v4.4c0,2.4-0.5,4.5-1.4,6.2s-2.2,3-4,3.9s-3.8,1.3-6.3,1.3
		S392,69.8,390.2,68.9z M401,63.6c1.1-1.1,1.6-2.7,1.6-4.8v-4.4c0-2-0.5-3.6-1.6-4.8c-1.1-1.1-2.6-1.7-4.5-1.7s-3.4,0.6-4.5,1.7
		c-1.1,1.1-1.6,2.7-1.6,4.8v4.4c0,2.1,0.5,3.6,1.6,4.8s2.6,1.7,4.5,1.7S399.9,64.7,401,63.6z"/>
	<path class="st3" d="M416,32.9h5.5v37H416V32.9z M424.1,69.1c-1.3-0.8-2.3-1.9-2.9-3.3l0.4-5.5c0,1.1,0.2,2.1,0.7,2.9
		c0.4,0.8,1.1,1.4,1.9,1.8c0.8,0.4,1.8,0.6,3,0.6c1.8,0,3.2-0.5,4.3-1.6c1-1,1.5-2.5,1.5-4.4v-5.7c0-1.9-0.5-3.4-1.5-4.5
		c-1-1.1-2.4-1.6-4.3-1.6c-1.2,0-2.2,0.2-3,0.6c-0.8,0.4-1.5,1-1.9,1.8c-0.4,0.8-0.7,1.7-0.7,2.8l-0.6-5.1c0.9-1.5,2-2.7,3.3-3.6
		c1.4-0.8,2.9-1.3,4.6-1.3c2,0,3.7,0.4,5.1,1.3c1.4,0.8,2.5,2.1,3.2,3.7s1.1,3.5,1.1,5.8v5.7c0,2.2-0.4,4.2-1.1,5.7
		s-1.9,2.8-3.3,3.6s-3.2,1.3-5.3,1.3C426.9,70.2,425.4,69.9,424.1,69.1z"/>
	<path class="st3" d="M446.3,32.9h5.5v5.2h-5.5V32.9z M446.3,43.5h5.5v26.4h-5.5V43.5z"/>
	<path class="st3" d="M465.9,63.1c0,0.6,0.1,1.1,0.4,1.5c0.3,0.3,0.7,0.5,1.3,0.5h2.6V70h-3.3c-2.1,0-3.7-0.6-4.9-1.8
		c-1.2-1.2-1.7-2.9-1.7-5.2V32.9h5.5V63.1z"/>
	<path class="st3" d="M481.3,68.9c-1.8-0.9-3.3-2.3-4.2-4c-1-1.8-1.5-3.9-1.5-6.4v-3c0-2.6,0.5-4.8,1.4-6.7c0.9-1.8,2.3-3.3,4.1-4.2
		s3.9-1.4,6.4-1.4c2.4,0,4.4,0.6,6,1.7c1.7,1.1,2.9,2.7,3.8,4.8c0.9,2.1,1.3,4.6,1.3,7.5v1.7h-19v-4.2h13.8c-0.2-2.2-0.8-3.8-1.8-5
		c-1-1.2-2.4-1.8-4.1-1.8c-2.1,0-3.7,0.6-4.9,1.9s-1.7,3.1-1.7,5.5v3.4c0,2.2,0.6,3.9,1.8,5c1.2,1.2,3,1.8,5.2,1.8
		c1.1,0,2.2-0.2,3.3-0.6s2.1-1,3-1.8l3.6,3.4c-1.4,1.3-3,2.2-4.7,2.9c-1.7,0.7-3.5,1-5.2,1C485.4,70.2,483.1,69.8,481.3,68.9z"/>
</g>
</svg>
